<svg id="Capa_1" enable-background="new 0 0 1000 1000" height="60" viewBox="0 0 1000 1000" width="60" xmlns="http://www.w3.org/2000/svg"><g><g><path d="m418.992 504.744h-325.984c-11.046 0-20-8.954-20-20v-432.03h365.984v432.03c0 11.046-8.954 20-20 20z" fill="#9dc6fb"></path></g><g><path d="m401.57 52.714v395.259c0 10.687-8.663 19.35-19.35 19.35h-309.212v17.422c0 11.046 8.954 20 20 20h325.984c11.046 0 20-8.954 20-20v-432.031z" fill="#89aada"></path></g><g><path d="m438.992 77.037h-365.984v-49.781c0-11.046 8.954-20 20-20h325.984c11.046 0 20 8.954 20 20z" fill="#f6f1f1"></path></g><g><path d="m418.992 7.256h-17.422v69.781h37.422v-49.781c0-11.046-8.954-20-20-20z" fill="#e7ecf6"></path></g><g><path d="m373.711 255.161h-235.422c-20.903 0-37.847-16.945-37.847-37.847v-64.944c0-20.903 16.945-37.847 37.847-37.847h235.422c20.903 0 37.847 16.945 37.847 37.847v64.943c0 20.903-16.944 37.848-37.847 37.848z" fill="#f6e266"></path></g><path d="m401.57 242.925c6.199-6.74 9.988-15.732 9.988-25.611v-64.944c0-9.879-3.789-18.871-9.988-25.611z" fill="#f1d333"></path><g><path d="m364.287 319.297c-8.872-.155-16.483 5.263-19.609 12.978-.122.301-.408.501-.733.501-.44 0-.797-.357-.797-.797v-12.348c0-11.129-8.559-20.65-19.673-21.221-9.605-.493-17.869 5.546-20.76 14.065-.162.479-.598.809-1.104.809s-.942-.331-1.104-.809c-2.78-8.194-10.531-14.093-19.665-14.093-8.738 0-16.187 5.411-19.251 13.054-.12.3-.404.5-.727.5-.436 0-.79-.354-.79-.79v-54.422c0-11.47-9.298-20.769-20.769-20.769-11.47 0-20.769 9.298-20.769 20.769l.047 110.283c0 .814-.984 1.222-1.559.646l-30.969-30.969c-8.111-8.111-21.261-8.111-29.371 0-8.111 8.111-8.111 21.261 0 29.371l58.979 58.979c1.916 1.916 3.209 4.361 3.743 7.018 3.732 18.564 20.129 32.547 39.793 32.547h84.898c22.418 0 40.591-18.173 40.591-40.591v-83.402c-.002-11.418-8.985-21.11-20.401-21.309z" fill="#f6f1f1"></path></g><g><path d="m438.992 153.382c-4.008 0-7.256 3.248-7.256 7.256v324.756c0 6.669-5.425 12.094-12.094 12.094h-54.112c-4.008 0-7.256 3.248-7.256 7.256s3.248 7.256 7.256 7.256h54.112c14.67 0 26.606-11.935 26.606-26.606v-324.756c0-4.008-3.248-7.256-7.256-7.256z"></path><path d="m419.642 0h-327.284c-14.671 0-26.606 11.936-26.606 26.606v458.788c0 14.67 11.935 26.606 26.606 26.606h237.388c4.008 0 7.256-3.248 7.256-7.256s-3.248-7.256-7.256-7.256h-237.388c-6.669 0-12.094-5.425-12.094-12.094v-401.101h351.472v42.076c0 4.008 3.248 7.256 7.256 7.256s7.256-3.248 7.256-7.256v-99.763c0-14.67-11.935-26.606-26.606-26.606zm-339.378 69.78v-43.174c0-6.669 5.425-12.094 12.094-12.094h327.285c6.669 0 12.094 5.425 12.094 12.094v43.174z"></path><path d="m116.846 33.804c-5.778 0-10.463 4.684-10.463 10.462s4.684 10.463 10.463 10.463c5.778 0 10.463-4.684 10.463-10.463 0-5.778-4.685-10.462-10.463-10.462z"></path><path d="m156.634 33.804c-5.778 0-10.463 4.684-10.463 10.462s4.684 10.463 10.463 10.463c5.778 0 10.463-4.684 10.463-10.463 0-5.778-4.685-10.462-10.463-10.462z"></path><path d="m196.422 33.804c-5.778 0-10.463 4.684-10.463 10.462s4.684 10.463 10.463 10.463c5.778 0 10.463-4.684 10.463-10.463 0-5.778-4.685-10.462-10.463-10.462z"></path><path d="m203.829 148.573c-4.007 0-7.256 3.248-7.256 7.256v52.843c0 3.535 2.547 6.555 6.031 7.152.526.09.892.153 6.722.153 2.841 0 6.979-.015 13.063-.049 4.007-.023 7.238-3.289 7.216-7.297-.022-3.994-3.267-7.216-7.255-7.216-.014 0-.028 0-.042 0-3.42.019-7.687.037-11.223.043v-45.628c0-4.008-3.249-7.257-7.256-7.257z"></path><path d="m349.521 148.573c-4.008 0-7.256 3.248-7.256 7.256v52.887c0 4.008 3.248 7.256 7.256 7.256s7.256-3.248 7.256-7.256v-12.176l18.034 17.398c2.881 2.781 7.475 2.702 10.26-.184 2.783-2.884 2.7-7.477-.184-10.26l-23.088-22.276 21.084-19.38c2.951-2.712 3.144-7.302.432-10.252-2.712-2.952-7.302-3.144-10.252-.432l-16.284 14.968v-10.292c-.002-4.008-3.25-7.257-7.258-7.257z"></path><path d="m257.23 208.717v-52.887c0-4.008-3.248-7.256-7.256-7.256-4.007 0-7.256 3.248-7.256 7.256v52.887c0 4.008 3.249 7.256 7.256 7.256 4.008 0 7.256-3.248 7.256-7.256z"></path><path d="m159.858 163.086c3.846 0 7.554 1.132 10.723 3.273 3.32 2.242 7.832 1.37 10.075-1.951 2.244-3.32 1.37-7.831-1.95-10.075-5.577-3.768-12.095-5.76-18.847-5.76-18.582 0-33.7 15.118-33.7 33.7s15.118 33.7 33.7 33.7c7.445 0 14.132-2.451 19.338-7.087 1.018-.906 1.987-1.905 2.881-2.971 2.576-3.071 2.174-7.647-.896-10.223-3.89-3.328-8.872-1.351-11.635 2.355-2.543 2.265-5.803 3.413-9.687 3.413-10.58 0-19.188-8.607-19.188-19.187-.002-10.58 8.606-19.187 19.186-19.187z"></path><path d="m305.452 163.086c3.846 0 7.555 1.132 10.724 3.273 3.321 2.243 7.831 1.37 10.075-1.951 2.243-3.32 1.37-7.831-1.951-10.075-5.577-3.768-12.095-5.76-18.847-5.76-18.582 0-33.7 15.118-33.7 33.7s15.118 33.7 33.7 33.7c7.445 0 14.133-2.451 19.339-7.087 1.019-.907 1.988-1.907 2.881-2.971 2.576-3.071 2.174-7.647-.896-10.223-3.892-3.329-8.871-1.351-11.636 2.355-2.543 2.265-5.802 3.413-9.687 3.413-10.58 0-19.187-8.607-19.187-19.187-.003-10.58 8.605-19.187 19.185-19.187z"></path><path d="m151.552 331.552c-5.293 5.293-8.209 12.331-8.209 19.817s2.915 14.524 8.209 19.817l58.978 58.979c.895.895 1.504 2.042 1.76 3.315 4.469 22.235 24.196 38.374 46.906 38.374h84.897c26.383 0 47.847-21.463 47.847-47.846v-83.402c0-15.485-12.349-28.298-27.528-28.564-5.13-.083-10.041 1.192-14.284 3.585-1.838-13.335-12.723-23.767-26.283-24.463-8.559-.436-16.679 3.1-22.22 9.185-5.201-5.749-12.686-9.222-20.785-9.222-4.851 0-9.47 1.23-13.512 3.455v-32.163h107.611c24.192 0 43.874-19.681 43.874-43.874v-67.405c0-24.192-19.681-43.874-43.874-43.874h-237.881c-24.192 0-43.873 19.681-43.873 43.874v67.404c0 24.192 19.681 43.874 43.873 43.874h47.77c4.007 0 7.256-3.248 7.256-7.256s-3.249-7.256-7.256-7.256h-47.77c-16.189 0-29.361-13.172-29.361-29.361v-67.405c0-16.189 13.171-29.361 29.361-29.361h237.883c16.189 0 29.361 13.172 29.361 29.361v67.404c0 16.189-13.172 29.361-29.361 29.361h-109.04c-3.705-11.144-14.223-19.206-26.596-19.206-15.453 0-28.025 12.572-28.025 28.028l.04 94.961-20.135-20.136c-10.927-10.927-28.706-10.927-39.633 0zm60.343 41.234c2.347 2.345 5.842 3.039 8.905 1.767 3.064-1.271 5.042-4.235 5.04-7.549l-.046-110.28c0-7.451 6.061-13.513 13.512-13.513s13.513 6.062 13.513 13.513v54.421c0 4.437 3.61 8.046 8.046 8.046 3.294 0 6.22-1.977 7.463-5.055 2.069-5.162 6.981-8.499 12.515-8.499 5.792 0 10.933 3.685 12.794 9.168 1.164 3.431 4.369 5.735 7.976 5.735 3.604 0 6.808-2.303 7.975-5.734 1.933-5.696 7.513-9.471 13.516-9.15 7.171.368 12.789 6.507 12.789 13.975v12.348c0 4.441 3.613 8.054 8.055 8.054 3.29 0 6.217-1.974 7.457-5.032 2.088-5.156 6.982-8.45 12.513-8.45.081 0 .163 0 .244.002 7.317.128 13.269 6.432 13.269 14.053v83.402c0 18.38-14.954 33.334-33.335 33.334h-84.897c-15.823 0-29.566-11.238-32.678-26.721-.822-4.087-2.802-7.794-5.727-10.718l-58.978-58.979c-2.552-2.552-3.958-5.945-3.958-9.554-.352-11.686 15.028-18.096 23.067-9.556z"></path></g></g></svg>